HIERARCHY
ROOT Torso
{
	OFFSET 0.000000 0.000000 0.000000
	CHANNELS 6 Xposition Yposition Zposition Zrotation Yrotation Xrotation 
	JOINT LHip
	{
		OFFSET 0.000000 0.000000 0.000000
		CHANNELS 3 Zrotation Yrotation Xrotation
		JOINT LThigh
		{
			OFFSET 0.055000 -0.055000 -0.010000
			CHANNELS 3 Zrotation Yrotation Xrotation
			JOINT LLeg
			{
				OFFSET 0.000000 -0.160000 0.015000
				CHANNELS 3 Zrotation Yrotation Xrotation
				JOINT LFoot
				{
					OFFSET 0.000000 -0.160000 -0.010000
					CHANNELS 3 Zrotation Yrotation Xrotation
					JOINT LToes
					{
						OFFSET 0.000000 0.000000 0.090000
						CHANNELS 3 Zrotation Yrotation Xrotation
						End Site
						{
							OFFSET 0.000000 0.000000 0.000000
						}
					}
				}
			}
		}
	}
	JOINT RHip
	{
		OFFSET 0.000000 0.000000 0.000000
		CHANNELS 3 Zrotation Yrotation Xrotation
		JOINT RThigh
		{
			OFFSET -0.055000 -0.055000 -0.010000
			CHANNELS 3 Zrotation Yrotation Xrotation
			JOINT RLeg
			{
				OFFSET 0.000000 -0.160000 0.015000
				CHANNELS 3 Zrotation Yrotation Xrotation
				JOINT RFoot
				{
					OFFSET 0.000000 -0.160000 -0.010000
					CHANNELS 3 Zrotation Yrotation Xrotation
					JOINT RToes
					{
						OFFSET 0.000000 0.000000 0.090000
						CHANNELS 3 Zrotation Yrotation Xrotation
						End Site
						{
							OFFSET 0.000000 0.000000 0.000000
						}
					}
				}
			}
		}
	}
	JOINT Neck
	{
		OFFSET 0.000000 0.135000 0.000000
		CHANNELS 3 Zrotation Yrotation Xrotation
		JOINT Head
		{
			OFFSET 0.000000 0.075000 0.000000
			CHANNELS 3 Zrotation Yrotation Xrotation
			End Site
			{
				OFFSET 0.000000 0.000000 0.000000
			}
		}
	}
	JOINT LUpperarm
	{
		OFFSET 0.098000 0.150000 0.000000
		CHANNELS 3 Zrotation Yrotation Xrotation
		JOINT LLowerarm
		{
			OFFSET 0.000000 0.009000 0.090000
			CHANNELS 3 Zrotation Yrotation Xrotation
			JOINT LHand
			{
				OFFSET 0.000000 0.000000 0.105000
				CHANNELS 3 Zrotation Yrotation Xrotation
				End Site
				{
					OFFSET 0.000000 0.000000 0.000000
				}
			}
		}
	}
	JOINT RUpperarm
	{
		OFFSET -0.098000 0.150000 0.000000
		CHANNELS 3 Zrotation Yrotation Xrotation
		JOINT RLowerarm
		{
			OFFSET 0.000000 0.009000 0.090000
			CHANNELS 3 Zrotation Yrotation Xrotation
			JOINT RHand
			{
				OFFSET 0.000000 0.000000 0.105000
				CHANNELS 3 Zrotation Yrotation Xrotation
				End Site
				{
					OFFSET 0.000000 0.000000 0.000000
				}
			}
		}
	}
}
MOTION
Frames: 20
Frame Time: 0.040000
-0.003760 0.419157 0.429519 -169.935294 54.675076 -178.418185 1.684220 18.219760 11.712937 -3.045511 7.391233 -5.691961 10.045759 14.560047 12.683197 5.331115 -0.957327 13.678240 0.550200 -4.751798 -13.201993 13.381341 5.553817 -1.074741 13.926997 15.073117 -1.312591 -24.131617 -0.180315 25.862211 -0.054578 3.595498 12.942294 -0.134000 2.359399 -6.500097 -0.091820 -0.765075 1.023090 -2.736399 3.492898 -5.511997 4.481290 27.078828 125.320623 10.557782 -0.566964 -2.806666 1.147763 1.894457 -9.917058 8.503864 -80.190291 99.246127 -1.972075 29.048004 -11.673628 -2.347924 -2.202593 5.608399 
-0.003194 0.418630 0.429062 -169.784334 55.343512 -178.182341 1.723664 18.421228 11.990328 -3.010553 7.565529 -6.108851 10.056915 14.895192 13.058191 5.443113 -1.430894 13.433391 0.519900 -4.620998 -12.830694 13.203238 5.294140 -1.242589 14.010389 14.614718 -0.359266 -23.740773 -0.005387 24.918491 -0.067260 3.771973 11.819057 -0.119300 2.226499 -6.132097 -0.113016 -0.700723 0.873367 -2.667499 3.435998 -5.515197 4.323097 27.608886 125.645471 10.747695 -0.632769 -2.807214 1.107938 1.900719 -9.943513 8.711732 -79.747068 99.213438 -2.473235 29.228238 -12.000938 -2.311814 -2.305374 4.568655 
-0.002643 0.418148 0.428617 -169.632686 56.116648 -177.920930 1.709921 18.639702 12.263644 -2.967854 7.765194 -6.533665 10.074959 15.231220 13.409713 5.550460 -1.885785 13.228409 0.495000 -4.510798 -12.518294 13.024508 5.048071 -1.397624 14.087945 14.288500 0.527065 -23.403111 0.172945 24.064209 -0.099422 3.925022 10.501974 -0.139100 2.403699 -6.622597 -0.143026 -0.634011 0.722070 -2.608599 3.371798 -5.514297 4.107750 28.202954 125.958494 10.925237 -0.683782 -2.799538 1.067276 1.907521 -9.894418 9.099976 -79.066655 98.984434 -3.022608 29.408085 -12.375942 -2.264498 -2.415022 3.408454 
-0.002102 0.417641 0.428235 -169.501447 56.853592 -177.666536 1.724713 18.848401 12.519934 -2.953385 7.905292 -6.952930 10.081961 15.562271 13.774215 5.631675 -2.280181 13.066200 0.469400 -4.394298 -12.188594 12.876829 4.845193 -1.546648 14.141791 14.087127 1.326140 -23.102545 0.354458 23.328581 -0.154123 4.067934 9.094336 -0.194600 2.840799 -7.835896 -0.195220 -0.567571 0.555925 -2.541199 3.306298 -5.502397 3.983632 28.849677 126.280192 11.168076 -0.763759 -2.808496 1.025006 1.917613 -9.856194 9.569973 -78.255513 98.641372 -3.593406 29.565059 -12.764724 -2.205588 -2.535985 2.255146 
-0.001585 0.417044 0.427902 -169.361761 57.601387 -177.408840 1.758122 19.059068 12.787944 -2.945376 7.999454 -7.401111 10.087323 15.920924 14.188019 5.693203 -2.650452 12.855531 0.447100 -4.289898 -11.893694 12.768589 4.671839 -1.671278 14.186266 13.994827 2.018831 -22.819382 0.528135 22.692915 -0.203063 4.132028 7.751982 -0.275200 3.374298 -9.322695 -0.262836 -0.498690 0.418154 -2.464199 3.248498 -5.480097 3.835022 29.450585 126.578229 11.462753 -0.869105 -2.801665 0.981809 1.929590 -9.889405 10.094732 -77.397240 98.240198 -4.141942 29.688591 -13.141386 -2.148003 -2.649232 1.231372 
-0.001083 0.416428 0.427610 -169.206680 58.442626 -177.124336 1.788963 19.281490 13.067210 -2.925276 8.074749 -7.883206 10.096759 16.307509 14.627531 5.738119 -2.995129 12.595912 0.444800 -4.278998 -11.863094 12.677791 4.487638 -1.773138 14.239921 13.984938 2.618325 -22.572178 0.675433 22.126550 -0.228748 4.076690 6.515143 -0.369300 3.903198 -10.804595 -0.328299 -0.424196 0.249059 -2.359999 3.186298 -5.461197 3.676318 30.091079 126.908990 11.783335 -0.996096 -2.798829 0.938746 1.949209 -9.999131 10.785291 -76.264143 97.652459 -4.751039 29.771859 -13.564734 -2.072963 -2.780480 -0.024691 
-0.000619 0.415772 0.427393 -169.049906 59.437509 -176.829562 1.810006 19.525913 13.384056 -2.913273 8.120802 -8.420761 10.110562 16.726663 15.104163 5.777277 -3.337033 12.383674 0.456300 -4.333398 -12.016394 12.580686 4.264839 -1.852836 14.308096 14.060647 3.140350 -22.350252 0.774080 21.625412 -0.187666 3.827414 5.596901 -0.417700 4.148398 -11.494394 -0.436355 -0.353881 0.116721 -2.286399 3.120798 -5.432497 3.439499 30.761134 127.226281 12.110606 -1.105585 -2.768552 0.905653 1.961584 -10.049377 11.539631 -75.203478 97.091636 -5.287039 29.804649 -13.924931 -1.998725 -2.893373 -1.034120 
-0.000171 0.415354 0.427189 -168.884921 60.527856 -176.546886 1.865680 19.786638 13.739690 -2.929649 8.109276 -8.970175 10.121191 17.171888 15.626493 5.785794 -3.612855 12.189672 0.502800 -4.545898 -12.617794 12.500782 4.010809 -1.899491 14.358364 14.184029 3.585286 -22.158604 0.824897 21.195359 -0.091411 3.444506 4.976908 -0.430400 4.210298 -11.669094 -0.631362 -0.269162 -0.034332 -2.203699 3.047198 -5.415197 3.138323 31.329501 127.563125 12.521542 -1.309115 -2.736529 0.866322 1.983907 -10.343122 12.066444 -74.730795 96.995566 -5.720633 29.848115 -14.168338 -1.951783 -2.978396 -1.682995 
0.000231 0.415014 0.427057 -168.636072 62.149734 -176.174364 1.854043 20.095326 14.200634 -2.958092 8.027997 -9.581999 10.170238 17.641087 16.135192 5.776423 -3.795911 12.199006 0.561800 -4.800698 -13.340893 12.432895 3.641821 -1.850743 14.383035 14.330382 3.931675 -22.032532 0.811689 20.750592 0.030222 3.004438 4.579681 -0.422200 4.170598 -11.557094 -0.860636 -0.178267 -0.190110 -2.101999 2.965099 -5.383397 2.610491 32.090371 127.942283 12.878984 -1.486358 -2.674100 0.837088 1.996920 -10.479166 12.836102 -74.105447 96.837336 -6.156368 29.837170 -14.421856 -1.901296 -3.064261 -2.409851 
0.000612 0.414753 0.426986 -168.364741 64.095358 -175.779885 1.823540 20.405799 14.747466 -3.002311 7.819178 -10.243861 10.218593 18.119295 16.671772 5.734204 -3.867572 12.495738 0.583000 -4.889198 -13.592893 12.354003 3.214723 -1.742639 14.380997 14.430443 4.209551 -21.959062 0.763365 20.295921 0.156350 2.552322 4.275336 -0.422200 4.170598 -11.557194 -1.140603 -0.088707 -0.379657 -2.010699 2.886799 -5.365697 1.982898 32.945042 128.344680 13.196873 -1.672846 -2.614363 0.813032 2.008794 -10.596581 13.596861 -73.663818 96.886730 -6.585750 29.794128 -14.624959 -1.854871 -3.145055 -2.989722 
0.000946 0.414559 0.426970 -168.043436 66.498375 -175.343827 1.780328 20.740986 15.438719 -3.111656 7.518807 -11.005502 10.269550 18.627153 17.251400 5.653170 -3.837856 13.068086 0.583800 -4.892198 -13.601393 12.268371 2.706593 -1.554141 14.290397 14.318037 4.392536 -21.955739 0.667756 19.776718 0.245778 2.223426 4.199370 -0.410300 4.111898 -11.391594 -1.476362 0.002140 -0.574954 -1.939299 2.799999 -5.319697 1.237054 33.980519 128.781860 13.468004 -1.868235 -2.559452 0.800228 2.015619 -10.598689 14.367353 -73.436942 97.184648 -6.963052 29.687907 -14.737027 -1.817448 -3.211217 -3.376992 
0.001268 0.414554 0.427043 -167.704501 69.311470 -174.906022 1.717938 21.076123 16.268656 -3.258797 7.075494 -11.844593 10.318550 19.165691 17.887428 5.519400 -3.690455 13.857790 0.562700 -4.804698 -13.352293 12.142098 2.111112 -1.299490 14.141389 13.974141 4.499355 -21.995830 0.521986 19.189716 0.326797 1.937076 4.404539 -0.408600 4.103398 -11.367794 -1.838932 0.099418 -0.806208 -1.879399 2.710899 -5.275297 0.333369 35.052871 129.212775 13.776299 -2.140920 -2.501495 0.783118 2.031593 -10.704963 15.278668 -73.035955 97.470301 -7.408915 29.492298 -14.850700 -1.769852 -3.285434 -3.853052 
0.001567 0.414723 0.427258 -167.361353 72.929858 -174.483713 1.529960 21.443874 17.321590 -3.483435 6.494119 -12.752036 10.434175 19.731970 18.495122 5.363156 -3.503684 14.822126 0.536100 -4.691698 -13.031194 11.952744 1.344943 -0.931423 13.872887 13.435291 4.554574 -22.063551 0.304616 18.481575 0.410364 1.616160 4.810758 -0.415700 4.138498 -11.466494 -2.279032 0.194382 -1.112740 -1.830199 2.615999 -5.242397 -0.767310 36.404988 129.687191 14.058189 -2.476901 -2.462607 0.767945 2.043819 -10.733216 16.202711 -72.851596 98.123667 -7.897720 29.208209 -14.892996 -1.723873 -3.357025 -4.172254 
0.001869 0.414991 0.427564 -167.057996 77.061239 -174.123017 1.249750 21.807369 18.536804 -3.776212 5.824155 -13.721648 10.591843 20.330012 19.106236 5.180857 -3.317643 15.821127 0.515500 -4.601698 -12.775894 11.668709 0.499740 -0.551692 13.549029 12.831576 4.621976 -22.115346 0.048228 17.740503 0.506996 1.227328 5.378561 -0.407400 4.097698 -11.351594 -2.682094 0.286555 -1.461203 -1.791299 2.523299 -5.205597 -1.984210 37.883331 130.140423 14.342398 -2.894778 -2.450602 0.756666 2.069504 -10.851352 17.138457 -72.603229 98.902001 -8.461182 28.801227 -14.898207 -1.672804 -3.430410 -4.613912 
0.002159 0.415338 0.427952 -166.820825 82.093516 -173.847015 0.754416 22.146518 19.927277 -4.171652 4.889697 -14.673686 10.839328 20.903213 19.615718 4.969963 -3.062499 16.979090 0.467200 -4.383998 -12.159394 11.255167 -0.487089 -0.138285 13.127474 12.245453 4.706763 -22.146015 -0.270080 16.949211 0.629222 0.687900 6.012978 -0.389600 4.007798 -11.098694 -3.063246 0.375890 -1.885663 -1.760199 2.427799 -5.178897 -3.433132 39.593799 130.568490 14.612943 -3.445542 -2.482718 0.745909 2.102040 -11.013254 18.071786 -72.390700 99.958636 -9.121192 28.267864 -14.856309 -1.608812 -3.508924 -5.087833 
0.002424 0.415724 0.428436 -166.815381 87.655674 -173.817470 0.130498 22.401800 21.421083 -4.680117 3.670104 -15.619800 11.170324 21.423899 20.042734 4.724865 -2.739095 18.229785 0.407800 -4.099598 -11.356994 10.764277 -1.539796 0.264238 12.636071 11.718598 4.765607 -22.174485 -0.641632 16.173876 0.752842 0.055091 6.621871 -0.368200 3.897498 -10.788595 -3.482500 0.448647 -2.326073 -1.773299 2.337699 -5.131397 -4.891828 41.496795 130.923850 14.889344 -4.076572 -2.573582 0.738718 2.133491 -11.229744 19.061323 -72.002972 101.051021 -9.819538 27.608000 -14.752142 -1.548827 -3.587025 -5.470142 
0.002700 0.416156 0.428960 13.029215 85.929434 6.014827 -0.743149 22.595317 23.010487 -5.297375 2.197262 -16.555455 11.665548 21.917214 20.348191 4.475149 -2.415358 19.372254 0.357600 -3.841498 -10.631195 10.174811 -2.697196 0.680583 12.084068 11.220603 4.767065 -22.213827 -1.088432 15.398027 0.857503 -0.633890 7.199118 -0.328800 3.685598 -10.193795 -3.806108 0.514715 -2.822131 -1.773999 2.261099 -5.088197 -6.476121 43.631947 131.198911 15.114520 -4.814483 -2.724800 0.730198 2.173031 -11.516925 19.953318 -71.612175 102.392953 -10.572387 26.799357 -14.557563 -1.486847 -3.660193 -5.823770 
0.002942 0.416425 0.429519 12.657201 78.514501 5.592012 -1.865637 22.722818 24.637126 -6.037981 0.403702 -17.493791 12.409182 22.394851 20.555349 4.224827 -2.094517 20.234816 0.339100 -3.741798 -10.351395 9.527762 -3.993404 1.141420 11.481394 10.642336 4.627330 -22.275291 -1.648145 14.589240 0.925073 -1.353833 7.746609 -0.297200 3.505298 -9.688795 -4.064182 0.575012 -3.402656 -1.775199 2.185199 -5.068097 -8.088143 46.121403 131.414755 15.271949 -5.661754 -2.962371 0.731654 2.204258 -11.692985 20.669313 -71.270742 104.071222 -11.388649 25.850939 -14.264902 -1.430223 -3.731270 -6.053711 
0.003171 0.416693 0.430084 12.057733 69.893421 4.883430 -3.329119 22.726233 26.247170 -6.866204 -1.773559 -18.450191 13.494489 22.817715 20.617873 4.009914 -1.814026 20.872950 0.353900 -3.821798 -10.575895 8.819524 -5.445822 1.625651 10.886570 10.026994 4.364467 -22.313476 -2.327340 13.745500 0.953477 -2.108501 8.231025 -0.259300 3.276098 -9.048495 -4.211196 0.636510 -3.981963 -1.764999 2.121299 -5.053397 -9.843188 48.887375 131.456919 15.413172 -6.672717 -3.277129 0.730627 2.244349 -11.887460 21.469544 -70.431429 105.696119 -12.234145 24.679039 -13.864885 -1.373191 -3.794194 -6.340121 
0.003392 0.416868 0.430613 11.385170 62.053841 4.099591 -4.542592 22.573553 27.732211 -7.605192 -3.978064 -19.526984 14.730664 23.235706 20.819976 3.829819 -1.617978 21.286859 0.378700 -3.952298 -10.942495 8.263522 -6.692315 1.981973 10.464737 9.518184 4.120789 -22.281877 -2.937905 13.052034 0.947896 -2.723553 8.641357 -0.214200 2.979299 -8.221096 -4.281737 0.687230 -4.544515 -1.802799 2.065899 -5.049597 -11.154650 51.383746 131.469437 15.594641 -7.674421 -3.646581 0.724812 2.290779 -12.266696 22.115070 -69.312810 106.992940 -13.103216 23.589244 -13.489738 -1.316247 -3.857894 -6.665764 
